<mxfile host="Electron" modified="2020-11-04T17:45:05.032Z" agent="5.0 (Windows NT 10.0; Win64; x64) AppleWebKit/537.36 (KHTML, like Gecko) draw.io/13.7.9 Chrome/85.0.4183.121 Electron/10.1.3 Safari/537.36" etag="I67gj581jLZ5JUgUnvrn" compressed="false" version="13.7.9" type="device">
  <diagram id="V_L5fzNhpdLv-cl03g0V" name="Page-1">
    <mxGraphModel dx="1483" dy="867" grid="1" gridSize="15" guides="1" tooltips="1" connect="1" arrows="1" fold="1" page="1" pageScale="2" pageWidth="827" pageHeight="1169" math="0" shadow="0">
      <root>
        <mxCell id="0" />
        <mxCell id="1" parent="0" />
        <mxCell id="xVAxOij2Gyq53mmYqfa0-3" value="" style="group;fontSize=14;fontStyle=0" parent="1" vertex="1" connectable="0" treatAsSingle="0">
          <mxGeometry x="90" y="70" width="825" height="566" as="geometry" />
        </mxCell>
        <mxCell id="cdPvcxIvXDk3fjFY_QnT-1" value="" style="endArrow=classic;html=1;fontSize=14;spacing=0;" parent="xVAxOij2Gyq53mmYqfa0-3" edge="1" treatAsSingle="0">
          <mxGeometry width="50" height="50" as="geometry">
            <mxPoint x="72" y="210" as="sourcePoint" />
            <mxPoint x="162" y="210" as="targetPoint" />
          </mxGeometry>
        </mxCell>
        <mxCell id="cdPvcxIvXDk3fjFY_QnT-6" value="&lt;i style=&quot;font-size: 14px;&quot;&gt;q&lt;sup style=&quot;font-size: 14px;&quot;&gt; dh&lt;/sup&gt;&lt;br style=&quot;font-size: 14px;&quot;&gt;T &lt;/i&gt;&lt;sup style=&quot;font-size: 14px;&quot;&gt;&lt;i style=&quot;font-size: 14px;&quot;&gt;dh,Ret&lt;/i&gt;&lt;br style=&quot;font-size: 14px;&quot;&gt;&lt;/sup&gt;" style="edgeLabel;html=1;align=center;verticalAlign=middle;resizable=0;points=[];fontSize=14;spacing=0;" parent="cdPvcxIvXDk3fjFY_QnT-1" vertex="1" connectable="0">
          <mxGeometry x="-0.312" y="-1" relative="1" as="geometry">
            <mxPoint x="-2.8000000000000007" y="19" as="offset" />
          </mxGeometry>
        </mxCell>
        <mxCell id="cdPvcxIvXDk3fjFY_QnT-3" value="" style="endArrow=classic;html=1;fontSize=14;spacing=0;" parent="xVAxOij2Gyq53mmYqfa0-3" edge="1" treatAsSingle="0">
          <mxGeometry width="50" height="50" as="geometry">
            <mxPoint x="222" y="209.8" as="sourcePoint" />
            <mxPoint x="352" y="210" as="targetPoint" />
          </mxGeometry>
        </mxCell>
        <mxCell id="cdPvcxIvXDk3fjFY_QnT-7" value="&lt;i style=&quot;font-size: 14px;&quot;&gt;T&lt;sup style=&quot;font-size: 14px;&quot;&gt; whb&lt;/sup&gt;&lt;/i&gt;" style="edgeLabel;html=1;align=center;verticalAlign=middle;resizable=0;points=[];fontSize=14;spacing=0;" parent="cdPvcxIvXDk3fjFY_QnT-3" vertex="1" connectable="0">
          <mxGeometry x="0.1591" y="2" relative="1" as="geometry">
            <mxPoint y="12.2" as="offset" />
          </mxGeometry>
        </mxCell>
        <mxCell id="cdPvcxIvXDk3fjFY_QnT-8" value="" style="ellipse;whiteSpace=wrap;html=1;aspect=fixed;fillColor=#0D0D0D;fontSize=14;spacing=0;" parent="xVAxOij2Gyq53mmYqfa0-3" vertex="1">
          <mxGeometry x="352" y="205" width="10" height="10" as="geometry" />
        </mxCell>
        <mxCell id="cdPvcxIvXDk3fjFY_QnT-9" value="" style="endArrow=classic;html=1;strokeWidth=1;entryX=0.5;entryY=0;entryDx=0;entryDy=0;fontSize=14;spacing=0;" parent="xVAxOij2Gyq53mmYqfa0-3" target="cdPvcxIvXDk3fjFY_QnT-14" edge="1">
          <mxGeometry width="50" height="50" relative="1" as="geometry">
            <mxPoint x="362" y="209.8" as="sourcePoint" />
            <mxPoint x="512" y="340" as="targetPoint" />
            <Array as="points">
              <mxPoint x="482" y="210" />
              <mxPoint x="495" y="210" />
            </Array>
          </mxGeometry>
        </mxCell>
        <mxCell id="cdPvcxIvXDk3fjFY_QnT-10" value="" style="endArrow=classic;html=1;strokeWidth=1;fontSize=14;spacing=0;" parent="xVAxOij2Gyq53mmYqfa0-3" edge="1">
          <mxGeometry width="50" height="50" relative="1" as="geometry">
            <mxPoint x="356.79999999999995" y="215" as="sourcePoint" />
            <mxPoint x="357" y="290" as="targetPoint" />
          </mxGeometry>
        </mxCell>
        <mxCell id="cdPvcxIvXDk3fjFY_QnT-11" value="" style="shape=cylinder;whiteSpace=wrap;html=1;boundedLbl=1;backgroundOutline=1;fillColor=#FFFFFF;fontSize=14;spacing=0;" parent="xVAxOij2Gyq53mmYqfa0-3" vertex="1">
          <mxGeometry x="338" y="290" width="60" height="80" as="geometry" />
        </mxCell>
        <mxCell id="cdPvcxIvXDk3fjFY_QnT-12" value="&lt;i style=&quot;font-size: 14px&quot;&gt;&lt;b&gt;TES&lt;/b&gt;&lt;/i&gt;" style="text;html=1;strokeColor=none;fillColor=none;align=center;verticalAlign=middle;whiteSpace=wrap;rounded=0;fontColor=#0000FF;fontSize=14;spacing=0;" parent="xVAxOij2Gyq53mmYqfa0-3" vertex="1">
          <mxGeometry x="348" y="380" width="40" height="20" as="geometry" />
        </mxCell>
        <mxCell id="cdPvcxIvXDk3fjFY_QnT-13" value="&lt;i style=&quot;font-size: 14px;&quot;&gt;T&lt;sup style=&quot;font-size: 14px;&quot;&gt; tes&lt;/sup&gt;&lt;/i&gt;" style="endArrow=classic;html=1;strokeWidth=1;fontColor=#0D0D0D;entryX=0;entryY=0.6;entryDx=0;entryDy=0;entryPerimeter=0;fontSize=14;spacing=0;" parent="xVAxOij2Gyq53mmYqfa0-3" target="cdPvcxIvXDk3fjFY_QnT-14" edge="1">
          <mxGeometry x="-0.0435" y="-20" width="50" height="50" relative="1" as="geometry">
            <mxPoint x="398" y="350" as="sourcePoint" />
            <mxPoint x="502" y="350" as="targetPoint" />
            <mxPoint as="offset" />
          </mxGeometry>
        </mxCell>
        <mxCell id="cdPvcxIvXDk3fjFY_QnT-14" value="" style="ellipse;whiteSpace=wrap;html=1;aspect=fixed;fillColor=#0D0D0D;fontSize=14;spacing=0;" parent="xVAxOij2Gyq53mmYqfa0-3" vertex="1">
          <mxGeometry x="490" y="344" width="10" height="10" as="geometry" />
        </mxCell>
        <mxCell id="cdPvcxIvXDk3fjFY_QnT-15" value="" style="endArrow=classic;html=1;strokeWidth=1;fontColor=#0000FF;entryX=0.124;entryY=0.5;entryDx=0;entryDy=0;entryPerimeter=0;fontSize=14;spacing=0;" parent="xVAxOij2Gyq53mmYqfa0-3" target="cdPvcxIvXDk3fjFY_QnT-57" edge="1">
          <mxGeometry width="50" height="50" relative="1" as="geometry">
            <mxPoint x="500" y="348.76" as="sourcePoint" />
            <mxPoint x="570" y="348.76" as="targetPoint" />
          </mxGeometry>
        </mxCell>
        <mxCell id="cdPvcxIvXDk3fjFY_QnT-18" value="&lt;i style=&quot;font-size: 14px;&quot;&gt;Q&amp;nbsp;&lt;span style=&quot;font-size: 14px;&quot;&gt;&lt;sup style=&quot;font-size: 14px;&quot;&gt;phb&lt;/sup&gt;&lt;/span&gt;&lt;/i&gt;" style="text;html=1;strokeColor=none;fillColor=none;align=center;verticalAlign=middle;whiteSpace=wrap;rounded=0;fontColor=#FF0000;fontStyle=1;fontSize=14;spacing=0;" parent="xVAxOij2Gyq53mmYqfa0-3" vertex="1">
          <mxGeometry x="554" y="379" width="40" height="20" as="geometry" />
        </mxCell>
        <mxCell id="cdPvcxIvXDk3fjFY_QnT-19" value="" style="endArrow=classic;html=1;strokeWidth=1;fontColor=#0000FF;dashed=1;fontSize=14;spacing=0;" parent="xVAxOij2Gyq53mmYqfa0-3" edge="1">
          <mxGeometry width="50" height="50" relative="1" as="geometry">
            <mxPoint x="63" y="308" as="sourcePoint" />
            <mxPoint x="80" y="210" as="targetPoint" />
            <Array as="points">
              <mxPoint x="63" y="260" />
              <mxPoint x="63" y="210" />
            </Array>
          </mxGeometry>
        </mxCell>
        <mxCell id="cdPvcxIvXDk3fjFY_QnT-27" value="" style="endArrow=classic;html=1;fillColor=#f8cecc;strokeColor=#b85450;strokeWidth=2;fontSize=14;spacing=0;" parent="xVAxOij2Gyq53mmYqfa0-3" edge="1">
          <mxGeometry width="50" height="50" relative="1" as="geometry">
            <mxPoint x="357.9999999999999" y="467" as="sourcePoint" />
            <mxPoint x="358" y="507" as="targetPoint" />
          </mxGeometry>
        </mxCell>
        <mxCell id="cdPvcxIvXDk3fjFY_QnT-28" value="&lt;i style=&quot;font-size: 14px;&quot;&gt;Q&lt;sup style=&quot;font-size: 14px;&quot;&gt; &lt;span style=&quot;font-size: 14px;&quot;&gt;consumer&lt;/span&gt;&lt;/sup&gt;&lt;/i&gt;" style="text;html=1;strokeColor=none;fillColor=none;align=center;verticalAlign=middle;whiteSpace=wrap;rounded=0;fontSize=14;spacing=0;" parent="xVAxOij2Gyq53mmYqfa0-3" vertex="1">
          <mxGeometry x="338" y="513" width="82" height="20" as="geometry" />
        </mxCell>
        <mxCell id="cdPvcxIvXDk3fjFY_QnT-31" value="" style="ellipse;whiteSpace=wrap;html=1;aspect=fixed;fillColor=#0D0D0D;fontSize=14;spacing=0;" parent="xVAxOij2Gyq53mmYqfa0-3" vertex="1">
          <mxGeometry x="696" y="344" width="10" height="10" as="geometry" />
        </mxCell>
        <mxCell id="cdPvcxIvXDk3fjFY_QnT-33" value="&lt;i style=&quot;font-size: 14px;&quot;&gt;q&lt;sup style=&quot;font-size: 14px;&quot;&gt; dh&lt;/sup&gt;&lt;br style=&quot;font-size: 14px;&quot;&gt;T&lt;sup style=&quot;font-size: 14px;&quot;&gt; phb&lt;/sup&gt; &amp;gt;= T&lt;sup style=&quot;font-size: 14px;&quot;&gt; dh,minSup&lt;/sup&gt;&lt;/i&gt;" style="text;html=1;strokeColor=none;fillColor=none;align=center;verticalAlign=middle;whiteSpace=wrap;rounded=0;fontColor=#0D0D0D;fontSize=14;spacing=0;" parent="xVAxOij2Gyq53mmYqfa0-3" vertex="1">
          <mxGeometry x="648" y="270" width="162" height="49" as="geometry" />
        </mxCell>
        <mxCell id="cdPvcxIvXDk3fjFY_QnT-34" value="B" style="text;html=1;strokeColor=none;fillColor=none;align=center;verticalAlign=middle;whiteSpace=wrap;rounded=0;fontColor=#0D0D0D;fontStyle=1;fontSize=14;spacing=0;" parent="xVAxOij2Gyq53mmYqfa0-3" vertex="1">
          <mxGeometry x="473" y="360" width="40" height="20" as="geometry" />
        </mxCell>
        <mxCell id="cdPvcxIvXDk3fjFY_QnT-35" value="&lt;i style=&quot;font-size: 14px&quot;&gt;&lt;b&gt;PHB&lt;/b&gt;&lt;/i&gt;" style="text;html=1;strokeColor=none;fillColor=none;align=center;verticalAlign=middle;whiteSpace=wrap;rounded=0;fontColor=#0000FF;fontSize=14;spacing=0;" parent="xVAxOij2Gyq53mmYqfa0-3" vertex="1">
          <mxGeometry x="587" y="290" width="40" height="20" as="geometry" />
        </mxCell>
        <mxCell id="cdPvcxIvXDk3fjFY_QnT-36" value="&lt;i style=&quot;font-size: 14px&quot;&gt;&lt;b&gt;WHB&lt;/b&gt;&lt;/i&gt;" style="text;html=1;strokeColor=none;fillColor=none;align=center;verticalAlign=middle;whiteSpace=wrap;rounded=0;fontColor=#0000FF;fontSize=14;spacing=0;" parent="xVAxOij2Gyq53mmYqfa0-3" vertex="1">
          <mxGeometry x="172" y="247" width="40" height="20" as="geometry" />
        </mxCell>
        <mxCell id="cdPvcxIvXDk3fjFY_QnT-39" value="&lt;i style=&quot;font-size: 14px;&quot;&gt;T&lt;sup style=&quot;font-size: 14px;&quot;&gt;&amp;nbsp;b&lt;/sup&gt;&lt;/i&gt;" style="edgeLabel;html=1;align=center;verticalAlign=middle;resizable=0;points=[];fontSize=14;spacing=0;" parent="xVAxOij2Gyq53mmYqfa0-3" vertex="1" connectable="0">
          <mxGeometry x="533.0029879255108" y="369.9956945376383" as="geometry" />
        </mxCell>
        <mxCell id="cdPvcxIvXDk3fjFY_QnT-40" value="&lt;span style=&quot;font-size: 14px;&quot;&gt;&lt;i style=&quot;font-size: 14px;&quot;&gt;&lt;font color=&quot;#ff0000&quot; style=&quot;font-size: 14px;&quot;&gt;⍺&lt;/font&gt;&lt;font color=&quot;#000000&quot; style=&quot;font-size: 14px;&quot;&gt; q&lt;/font&gt;&lt;sup style=&quot;color: rgb(0, 0, 0); font-size: 14px;&quot;&gt; dh&lt;/sup&gt;&lt;/i&gt;&lt;/span&gt;" style="text;html=1;strokeColor=none;fillColor=none;align=center;verticalAlign=middle;whiteSpace=wrap;rounded=0;fontColor=#0D0D0D;fontSize=14;spacing=0;" parent="xVAxOij2Gyq53mmYqfa0-3" vertex="1">
          <mxGeometry x="363" y="248" width="57" height="20" as="geometry" />
        </mxCell>
        <mxCell id="cdPvcxIvXDk3fjFY_QnT-41" value="&lt;span style=&quot;color: rgb(0, 0, 0); font-size: 14px;&quot;&gt;&lt;i style=&quot;font-size: 14px;&quot;&gt;(1-⍺) q&lt;sup style=&quot;font-size: 14px;&quot;&gt; dh&lt;/sup&gt;&lt;/i&gt;&lt;/span&gt;" style="text;html=1;strokeColor=none;fillColor=none;align=center;verticalAlign=middle;whiteSpace=wrap;rounded=0;fontColor=#0D0D0D;fontSize=14;spacing=0;" parent="xVAxOij2Gyq53mmYqfa0-3" vertex="1">
          <mxGeometry x="412" y="185" width="68" height="20" as="geometry" />
        </mxCell>
        <mxCell id="cdPvcxIvXDk3fjFY_QnT-42" value="Pipe Losses" style="shape=process;whiteSpace=wrap;html=1;backgroundOutline=1;fillColor=#FFFFFF;fontSize=12;fontColor=#0D0D0D;rotation=90;spacing=0;" parent="xVAxOij2Gyq53mmYqfa0-3" vertex="1">
          <mxGeometry x="17.880000000000003" y="345" width="90" height="15" as="geometry" />
        </mxCell>
        <mxCell id="cdPvcxIvXDk3fjFY_QnT-24" value="" style="endArrow=classic;html=1;strokeWidth=1;fontColor=#0000FF;dashed=1;exitX=1;exitY=0.5;exitDx=0;exitDy=0;entryX=1;entryY=0.5;entryDx=0;entryDy=0;fontSize=14;spacing=0;" parent="xVAxOij2Gyq53mmYqfa0-3" source="cdPvcxIvXDk3fjFY_QnT-31" target="cdPvcxIvXDk3fjFY_QnT-42" edge="1">
          <mxGeometry width="50" height="50" relative="1" as="geometry">
            <mxPoint x="722" y="349" as="sourcePoint" />
            <mxPoint x="17" y="440" as="targetPoint" />
            <Array as="points">
              <mxPoint x="765" y="349" />
              <mxPoint x="765" y="420" />
              <mxPoint x="765" y="455" />
              <mxPoint x="63" y="455" />
            </Array>
          </mxGeometry>
        </mxCell>
        <mxCell id="cdPvcxIvXDk3fjFY_QnT-45" value="" style="endArrow=classic;html=1;fillColor=#f8cecc;strokeColor=#b85450;strokeWidth=2;fontSize=14;spacing=0;" parent="xVAxOij2Gyq53mmYqfa0-3" edge="1" treatAsSingle="0">
          <mxGeometry x="17.880000000000003" width="50" height="50" as="geometry">
            <mxPoint x="55.88" y="352.33" as="sourcePoint" />
            <mxPoint x="17.880000000000003" y="352" as="targetPoint" />
          </mxGeometry>
        </mxCell>
        <mxCell id="cdPvcxIvXDk3fjFY_QnT-46" value="Q&lt;sup style=&quot;font-size: 14px;&quot;&gt;&amp;nbsp;Pipe, Loss&lt;/sup&gt;" style="edgeLabel;html=1;align=center;verticalAlign=middle;resizable=0;points=[];fontSize=14;fontColor=#0D0D0D;fontStyle=2;rotation=90;spacing=0;" parent="cdPvcxIvXDk3fjFY_QnT-45" vertex="1" connectable="0">
          <mxGeometry x="0.7931" y="1" relative="1" as="geometry">
            <mxPoint x="11.29" y="46.97" as="offset" />
          </mxGeometry>
        </mxCell>
        <mxCell id="cdPvcxIvXDk3fjFY_QnT-47" value="" style="shape=mxgraph.pid.heat_exchangers.shell_and_tube_heat_exchanger_2;html=1;align=center;verticalLabelPosition=bottom;verticalAlign=top;dashed=0;fillColor=#FFFFFF;fontSize=14;fontColor=#FF0000;rotation=90;spacing=0;" parent="xVAxOij2Gyq53mmYqfa0-3" vertex="1">
          <mxGeometry x="162" y="180" width="60" height="60" as="geometry" />
        </mxCell>
        <mxCell id="cdPvcxIvXDk3fjFY_QnT-48" value="" style="endArrow=classic;html=1;strokeWidth=1;fontSize=14;fontColor=#FF0000;entryX=0.137;entryY=0.832;entryDx=0;entryDy=0;entryPerimeter=0;spacing=0;" parent="xVAxOij2Gyq53mmYqfa0-3" target="cdPvcxIvXDk3fjFY_QnT-47" edge="1" treatAsSingle="0">
          <mxGeometry width="50" height="50" as="geometry">
            <mxPoint x="172" y="130" as="sourcePoint" />
            <mxPoint x="172" y="185" as="targetPoint" />
          </mxGeometry>
        </mxCell>
        <mxCell id="cdPvcxIvXDk3fjFY_QnT-55" value="&lt;i style=&quot;font-size: 14px;&quot;&gt;T&lt;sup style=&quot;font-size: 14px;&quot;&gt; wh,sup&lt;/sup&gt;&lt;br style=&quot;font-size: 14px;&quot;&gt;q&lt;sup style=&quot;font-size: 14px;&quot;&gt; wh&lt;/sup&gt;&lt;/i&gt;" style="edgeLabel;html=1;align=center;verticalAlign=middle;resizable=0;points=[];fontSize=14;fontColor=#0D0D0D;spacing=0;" parent="cdPvcxIvXDk3fjFY_QnT-48" vertex="1" connectable="0">
          <mxGeometry x="-0.6996" relative="1" as="geometry">
            <mxPoint x="-28.01" y="-18.57" as="offset" />
          </mxGeometry>
        </mxCell>
        <mxCell id="cdPvcxIvXDk3fjFY_QnT-49" value="" style="endArrow=classic;html=1;strokeWidth=1;fontSize=14;fontColor=#FF0000;exitX=0.137;exitY=0.166;exitDx=0;exitDy=0;exitPerimeter=0;entryX=0.876;entryY=0.5;entryDx=0;entryDy=0;entryPerimeter=0;spacing=0;" parent="xVAxOij2Gyq53mmYqfa0-3" source="cdPvcxIvXDk3fjFY_QnT-47" target="cdPvcxIvXDk3fjFY_QnT-50" edge="1" treatAsSingle="0">
          <mxGeometry width="50" height="50" as="geometry">
            <mxPoint x="212" y="185" as="sourcePoint" />
            <mxPoint x="212" y="90" as="targetPoint" />
          </mxGeometry>
        </mxCell>
        <mxCell id="cdPvcxIvXDk3fjFY_QnT-56" value="&lt;i style=&quot;font-size: 14px;&quot;&gt;T&lt;sup style=&quot;font-size: 14px;&quot;&gt; wh,ret&lt;/sup&gt;&lt;/i&gt;" style="edgeLabel;html=1;align=center;verticalAlign=middle;resizable=0;points=[];fontSize=14;fontColor=#0D0D0D;spacing=0;" parent="cdPvcxIvXDk3fjFY_QnT-49" vertex="1" connectable="0">
          <mxGeometry x="-0.3342" y="-2" relative="1" as="geometry">
            <mxPoint x="30.299999999999997" y="11.81" as="offset" />
          </mxGeometry>
        </mxCell>
        <mxCell id="cdPvcxIvXDk3fjFY_QnT-50" value="" style="shape=mxgraph.pid.heat_exchangers.condenser;html=1;align=center;verticalLabelPosition=bottom;verticalAlign=top;dashed=0;fillColor=#FFFFFF;fontSize=14;fontColor=#FF0000;rotation=90;spacing=0;" parent="xVAxOij2Gyq53mmYqfa0-3" vertex="1">
          <mxGeometry x="181" y="75" width="60" height="60" as="geometry" />
        </mxCell>
        <mxCell id="cdPvcxIvXDk3fjFY_QnT-51" value="" style="endArrow=classic;html=1;strokeWidth=1;fontSize=14;fontColor=#FF0000;exitX=0.124;exitY=0.5;exitDx=0;exitDy=0;exitPerimeter=0;" parent="xVAxOij2Gyq53mmYqfa0-3" source="cdPvcxIvXDk3fjFY_QnT-50" edge="1" treatAsSingle="0">
          <mxGeometry y="45" width="50" height="50" as="geometry">
            <mxPoint x="211" y="75" as="sourcePoint" />
            <mxPoint x="211" y="45" as="targetPoint" />
          </mxGeometry>
        </mxCell>
        <mxCell id="cdPvcxIvXDk3fjFY_QnT-54" value="&lt;i style=&quot;font-size: 14px;&quot;&gt;&lt;font color=&quot;#0d0d0d&quot; style=&quot;font-size: 14px;&quot;&gt;T&lt;sup style=&quot;font-size: 14px;&quot;&gt;&amp;nbsp;dc&lt;/sup&gt; &amp;lt;= T&lt;sup style=&quot;font-size: 14px;&quot;&gt; wh, min Ret&lt;/sup&gt;&lt;/font&gt;&lt;/i&gt;" style="edgeLabel;html=1;align=center;verticalAlign=middle;resizable=0;points=[];fontSize=14;fontColor=#FF0000;spacing=0;" parent="cdPvcxIvXDk3fjFY_QnT-51" vertex="1" connectable="0">
          <mxGeometry x="0.4567" y="1" relative="1" as="geometry">
            <mxPoint x="93" y="-0.010000000000001563" as="offset" />
          </mxGeometry>
        </mxCell>
        <mxCell id="cdPvcxIvXDk3fjFY_QnT-52" value="&lt;i style=&quot;font-size: 14px;&quot;&gt;Q&amp;nbsp;&lt;span style=&quot;font-size: 14px;&quot;&gt;&lt;sup style=&quot;font-size: 14px;&quot;&gt;dc&lt;/sup&gt;&lt;/span&gt;&lt;/i&gt;" style="text;html=1;strokeColor=none;fillColor=none;align=center;verticalAlign=middle;whiteSpace=wrap;rounded=0;fontColor=#FF0000;fontStyle=1;fontSize=14;spacing=0;" parent="xVAxOij2Gyq53mmYqfa0-3" vertex="1">
          <mxGeometry x="244" y="135" width="40" height="20" as="geometry" />
        </mxCell>
        <mxCell id="cdPvcxIvXDk3fjFY_QnT-53" value="&lt;i style=&quot;font-size: 14px;&quot;&gt;DC&lt;/i&gt;" style="text;html=1;strokeColor=none;fillColor=none;align=center;verticalAlign=middle;whiteSpace=wrap;rounded=0;fontColor=#0000FF;fontSize=14;fontStyle=1;spacing=0;" parent="xVAxOij2Gyq53mmYqfa0-3" vertex="1">
          <mxGeometry x="241" y="95" width="40" height="20" as="geometry" />
        </mxCell>
        <mxCell id="cdPvcxIvXDk3fjFY_QnT-57" value="" style="shape=mxgraph.pid.heat_exchangers.condenser;html=1;align=center;verticalLabelPosition=bottom;verticalAlign=top;dashed=0;fillColor=#FFFFFF;fontSize=14;fontColor=#FF0000;rotation=0;spacing=0;" parent="xVAxOij2Gyq53mmYqfa0-3" vertex="1">
          <mxGeometry x="577" y="319" width="60" height="60" as="geometry" />
        </mxCell>
        <mxCell id="cdPvcxIvXDk3fjFY_QnT-30" value="" style="endArrow=classic;html=1;strokeWidth=1;fontColor=#0000FF;entryX=0;entryY=0.5;entryDx=0;entryDy=0;exitX=0.876;exitY=0.5;exitDx=0;exitDy=0;exitPerimeter=0;fontSize=14;spacing=0;" parent="xVAxOij2Gyq53mmYqfa0-3" source="cdPvcxIvXDk3fjFY_QnT-57" target="cdPvcxIvXDk3fjFY_QnT-31" edge="1">
          <mxGeometry width="50" height="50" relative="1" as="geometry">
            <mxPoint x="632" y="348.65999999999997" as="sourcePoint" />
            <mxPoint x="702" y="348.65999999999997" as="targetPoint" />
          </mxGeometry>
        </mxCell>
        <mxCell id="cdPvcxIvXDk3fjFY_QnT-25" value="&lt;font style=&quot;font-size: 12px;&quot;&gt;Pipe Element&lt;/font&gt;" style="rounded=1;whiteSpace=wrap;html=1;fontSize=12;spacing=0;" parent="xVAxOij2Gyq53mmYqfa0-3" vertex="1">
          <mxGeometry x="313" y="447" width="88" height="20" as="geometry" />
        </mxCell>
      </root>
    </mxGraphModel>
  </diagram>
</mxfile>
